<?xml version="1.0" encoding="UTF-8"?>
<svg width="17px" height="16px" viewBox="0 0 17 16" version="1.1" xmlns="http://www.w3.org/2000/svg" xmlns:xlink="http://www.w3.org/1999/xlink">
    <!-- Generator: Sketch 62 (91390) - https://sketch.com -->
    <title>printer</title>
    <desc>Created with Sketch.</desc>
    <g id="Song-details" stroke="none" stroke-width="1" fill="none" fill-rule="evenodd">
        <g id="Acoompany-me-Song-details" transform="translate(-1137.000000, -579.000000)" fill="#C6C6C6" fill-rule="nonzero">
            <g id="printer" transform="translate(1137.500000, 579.000000)">
                <path d="M13.203125,3.09375 L13.203125,2.34375 C13.203125,1.05140625 12.1517188,0 10.859375,0 L5.109375,0 C3.81703125,0 2.765625,1.05140625 2.765625,2.34375 L2.765625,3.09375 L13.203125,3.09375 Z" id="Path"></path>
                <path d="M3.703125,9.96875 L3.703125,13.78125 L3.703125,14.59375 L3.703125,15.0625 C3.703125,15.58025 4.12284375,16 4.640625,16 L11.328125,16 C11.8459063,16 12.265625,15.58025 12.265625,15.0625 L12.265625,14.59375 L12.265625,13.78125 L12.265625,9.96875 L3.703125,9.96875 Z M9.234375,13.96875 L6.734375,13.96875 C6.4755,13.96875 6.265625,13.758875 6.265625,13.5 C6.265625,13.241125 6.4755,13.03125 6.734375,13.03125 L9.234375,13.03125 C9.49325,13.03125 9.703125,13.241125 9.703125,13.5 C9.703125,13.758875 9.49325,13.96875 9.234375,13.96875 Z M9.234375,11.96875 L6.734375,11.96875 C6.4755,11.96875 6.265625,11.758875 6.265625,11.5 C6.265625,11.241125 6.4755,11.03125 6.734375,11.03125 L9.234375,11.03125 C9.49325,11.03125 9.703125,11.241125 9.703125,11.5 C9.703125,11.758875 9.49325,11.96875 9.234375,11.96875 Z" id="Shape"></path>
                <path d="M13.640625,4.03125 L2.359375,4.03125 C1.06703125,4.03125 0.015625,5.08265625 0.015625,6.375 L0.015625,10.125 C0.015625,11.4173438 1.06703125,12.46875 2.359375,12.46875 L2.765625,12.46875 L2.765625,9.96875 L2.484375,9.96875 C2.2255,9.96875 2.015625,9.758875 2.015625,9.5 C2.015625,9.241125 2.2255,9.03125 2.484375,9.03125 L3.234375,9.03125 L12.734375,9.03125 L13.484375,9.03125 C13.74325,9.03125 13.953125,9.241125 13.953125,9.5 C13.953125,9.758875 13.74325,9.96875 13.484375,9.96875 L13.203125,9.96875 L13.203125,12.46875 L13.640625,12.46875 C14.9329688,12.46875 15.984375,11.4173438 15.984375,10.125 L15.984375,6.375 C15.984375,5.08265625 14.9329688,4.03125 13.640625,4.03125 Z M3.984375,6.96875 L2.484375,6.96875 C2.2255,6.96875 2.015625,6.758875 2.015625,6.5 C2.015625,6.241125 2.2255,6.03125 2.484375,6.03125 L3.984375,6.03125 C4.24325,6.03125 4.453125,6.241125 4.453125,6.5 C4.453125,6.758875 4.24325,6.96875 3.984375,6.96875 Z" id="Shape"></path>
            </g>
        </g>
    </g>
</svg>