<?xml version="1.0" encoding="UTF-8"?>
<svg width="19px" height="17px" viewBox="0 0 19 17" version="1.1" xmlns="http://www.w3.org/2000/svg" xmlns:xlink="http://www.w3.org/1999/xlink">
    <!-- Generator: Sketch 62 (91390) - https://sketch.com -->
    <title>speaker (1)</title>
    <desc>Created with Sketch.</desc>
    <g id="Song-details" stroke="none" stroke-width="1" fill="none" fill-rule="evenodd">
        <g id="Acoompany-me-Song-details" transform="translate(-658.000000, -576.000000)" fill="#FD8668" fill-rule="nonzero">
            <g id="speaker-(1)" transform="translate(658.500000, 576.000000)">
                <path d="M10.4604,0.0966375 C10.2516,-0.0029625 10.0056,0.0234375 9.8256,0.1686375 L3.9888,4.8378375 L1.2,4.8378375 C0.5388,4.8378375 0,5.3766375 0,6.0378375 L0,10.8378375 C0,11.5002375 0.5388,12.0378375 1.2,12.0378375 L3.9888,12.0378375 L9.8244,16.7070375 C9.9336,16.7934375 10.0668,16.8378375 10.2,16.8378375 C10.2888,16.8378375 10.3776,16.8174375 10.4604,16.7778375 C10.668,16.6782375 10.8,16.4682375 10.8,16.2378375 L10.8,0.6378375 C10.8,0.4074375 10.668,0.1974375 10.4604,0.0966375 Z" id="Path"></path>
                <path d="M13.8372,4.1946375 C13.6008,3.9618375 13.2216,3.9654375 12.9888,4.1994375 C12.756,4.4358375 12.7584,4.8150375 12.9936,5.0490375 C13.9008,5.9442375 14.4,7.1478375 14.4,8.4378375 C14.4,9.7278375 13.9008,10.9314375 12.9936,11.8266375 C12.7584,12.0582375 12.756,12.4386375 12.9888,12.6750375 C13.1064,12.7938375 13.2612,12.8526375 13.4148,12.8526375 C13.5672,12.8526375 13.7196,12.7950375 13.8372,12.6786375 C14.9748,11.5590375 15.6,10.0518375 15.6,8.4378375 C15.6,6.8238375 14.9748,5.3166375 13.8372,4.1946375 Z" id="Path"></path>
                <path d="M15.5304,2.5038375 C15.294,2.2698375 14.9148,2.2722375 14.6808,2.5074375 C14.448,2.7426375 14.4504,3.1230375 14.6844,3.3558375 C16.0488,4.7082375 16.8,6.5130375 16.8,8.4378375 C16.8,10.3626375 16.0488,12.1662375 14.6844,13.5186375 C14.4504,13.7526375 14.448,14.1330375 14.6808,14.3682375 C14.7996,14.4858375 14.9532,14.5446375 15.1068,14.5446375 C15.2592,14.5446375 15.4128,14.4870375 15.5304,14.3706375 C17.124,12.7926375 18,10.6854375 18,8.4378375 C18,6.1902375 17.124,4.0830375 15.5304,2.5038375 Z" id="Path"></path>
            </g>
        </g>
    </g>
</svg>