<?xml version="1.0" encoding="UTF-8"?>
<svg width="21px" height="17px" viewBox="0 0 21 17" version="1.1" xmlns="http://www.w3.org/2000/svg" xmlns:xlink="http://www.w3.org/1999/xlink">
    <!-- Generator: Sketch 62 (91390) - https://sketch.com -->
    <title>Group 10</title>
    <desc>Created with Sketch.</desc>
    <g id="Song-details" stroke="none" stroke-width="1" fill="none" fill-rule="evenodd">
        <g id="Acoompany-me-Song-details" transform="translate(-894.000000, -576.000000)">
            <g id="Group-10" transform="translate(894.500000, 576.000000)">
                <g id="Group-4" transform="translate(17.386932, 8.746242) rotate(-45.000000) translate(-17.386932, -8.746242) translate(13.386932, 4.746242)" stroke="#C6C6C6" stroke-linecap="round" stroke-width="1.5">
                    <line x1="3.87814078" y1="0.44432044" x2="3.87814078" y2="7.31932044" id="Line-2"></line>
                    <line x1="7.31564078" y1="3.88182044" x2="0.440640783" y2="3.88182044" id="Line-2"></line>
                </g>
                <path d="M10.4604,0.059500814 C10.2516,-0.040099186 10.0056,-0.013699186 9.8256,0.131500814 L3.9888,4.80070081 L1.2,4.80070081 C0.5388,4.80070081 -2.30926389e-14,5.33950081 -2.30926389e-14,6.00070081 L-2.30926389e-14,10.8007008 C-2.30926389e-14,11.4631008 0.5388,12.0007008 1.2,12.0007008 L3.9888,12.0007008 L9.8244,16.6699008 C9.9336,16.7563008 10.0668,16.8007008 10.2,16.8007008 C10.2888,16.8007008 10.3776,16.7803008 10.4604,16.7407008 C10.668,16.6411008 10.8,16.4311008 10.8,16.2007008 L10.8,0.600700814 C10.8,0.370300814 10.668,0.160300814 10.4604,0.059500814 Z" id="Path" fill="#C6C6C6" fill-rule="nonzero"></path>
            </g>
        </g>
    </g>
</svg>