<?xml version="1.0" encoding="UTF-8"?>
<svg width="185px" height="26px" viewBox="0 0 185 26" version="1.1" xmlns="http://www.w3.org/2000/svg" xmlns:xlink="http://www.w3.org/1999/xlink">
    <title>Accompany me logo</title>
    <g id="Accompany-me-logo" stroke="none" stroke-width="1" fill="none" fill-rule="evenodd">
        <g transform="translate(2.000000, 2.000000)" fill="#71A0F2" fill-rule="nonzero">
            <path d="M105.186123,10.9772976 L105.186123,17.2872185 L103.509191,17.2872185 L103.509191,15.3237371 C102.145344,16.8828363 100.475228,17.6329276 98.4971394,17.5744979 C96.7688375,17.5153378 95.2981132,16.8463177 94.0810712,15.5664638 C92.8637858,14.2868533 92.2570907,12.7645161 92.2570907,10.9994522 C92.2570907,9.16062082 92.9115033,7.58326233 94.2205721,6.26688984 C95.5298844,4.95027389 97.0960438,4.32897139 98.9202678,4.40249544 C100.685332,4.46116859 102.185271,5.13432745 103.420816,6.42148509 C104.65636,7.70839927 105.244796,9.22732806 105.186123,10.9772976 Z M105.359708,5.99884358 C106.529032,6.47991479 107.426902,7.63925746 107.426902,8.97510651 L107.426902,17.2872185 L109.103591,17.2872185 L109.103591,9.94041388 C109.103591,8.88137553 109.493366,7.96938527 110.26902,7.20444309 C111.044918,6.43974437 111.956908,6.05727328 113.008886,6.05727328 C114.04577,6.05727328 114.9507,6.43998783 115.726111,7.20444309 C116.501522,7.9686549 116.892027,8.88137553 116.892027,9.94041388 L116.892027,17.2872185 L118.568716,17.2872185 L118.568716,10.1166768 C118.568716,8.48478393 118.03871,7.12702374 116.980158,6.04607425 C115.921607,4.96536823 114.5972,4.42440657 113.008886,4.42440657 C111.405721,4.42440657 110.074498,4.96512477 109.01546,6.04607425 C108.832136,6.2330493 108.664638,6.42830189 108.513208,6.63207547 C108.021181,5.72105904 107.252343,4.97900183 106.32112,4.52105904 L105.359708,5.99884358 Z M56.3048083,5.99884358 C57.4741327,6.47991479 58.3055386,7.63463177 58.3055386,8.97023737 L58.3055386,17.2872185 L60.0486914,17.2872185 L60.0486914,9.3848448 C60.0486914,7.62221546 61.4960438,6.17413268 63.2586732,6.17413268 C65.021546,6.17413268 66.4693853,7.621972 66.4693853,9.3848448 L66.4693853,17.2872185 L68.2120511,17.2872185 L68.2120511,9.3848448 C68.2120511,7.621972 69.6598904,6.17413268 71.4225198,6.17413268 C73.1849057,6.17413268 74.632745,7.62221546 74.632745,9.3848448 L74.632745,17.2872185 L76.3756543,17.2872185 L76.3756543,9.3848448 C76.3756543,6.66055995 74.1470481,4.43146683 71.4225198,4.43146683 L71.4222763,4.43146683 C69.7336579,4.43146683 68.2356665,5.28770542 67.3404747,6.58776628 C66.445283,5.28770542 64.9477785,4.43146683 63.2589166,4.43146683 L63.2586732,4.43146683 C61.656482,4.43146683 60.2264151,5.20225198 59.319294,6.39105295 C58.8272672,5.59007912 58.1141814,4.93810103 57.2662203,4.52105904 L56.3048083,5.99884358 Z M37.0595253,4.41710286 C39.2503956,4.35940353 41.5391357,5.56743761 42.3556908,7.80894705 L40.6203287,8.52982349 C40.0053561,6.96147292 38.5119903,6.16317712 37.1060256,6.19993914 C34.4528302,6.26981132 32.5419355,8.46141205 32.6115642,11.1146074 C32.6811929,13.7678028 34.8888618,15.8622642 37.5423007,15.7926354 C38.9480219,15.7556299 40.1972002,15.1182593 41.0505173,14.1322581 L42.3997565,15.2993914 C41.2297018,16.6510651 39.5169811,17.5250761 37.5890444,17.5759586 C33.9505782,17.6716372 30.9239197,14.799574 30.8284845,11.1613512 C30.7328058,7.52312842 33.4213025,4.51253804 37.0595253,4.41710286 Z M13.5408399,13.6229458 L14.0749848,14.8051735 C14.8662203,16.5568472 16.7230676,17.5131467 18.5392575,17.2414486 L18.3627511,15.5116859 C17.2727937,15.7103469 16.1283019,15.1462568 15.6584297,14.0964699 L15.2180158,13.1209373 L15.2182593,13.1209373 L9.48971394,0.298539257 L7.59001826,0.298539257 L-2.7000624e-13,17.2872185 L1.89969568,17.2872185 L3.61582471,13.4459525 L13.463664,13.4459525 L13.5425441,13.6222155 L13.5408399,13.6229458 Z M4.39537432,11.7010956 L8.53974437,2.42440657 L12.6843579,11.7010956 L4.39537432,11.7010956 Z M24.5667681,4.41710286 C26.7576385,4.35940353 29.0463786,5.56743761 29.8629337,7.80894705 L28.1275715,8.52982349 C27.5128424,6.96147292 26.0194766,6.16317712 24.6135119,6.19993914 C21.960073,6.26981132 20.0494218,8.46141205 20.1188071,11.1146074 C20.1884358,13.7678028 22.3961047,15.8622642 25.0495435,15.7926354 C26.4555082,15.7556299 27.7044431,15.1182593 28.5580037,14.1322581 L29.9069994,15.2993914 C28.7371881,16.6510651 27.0244674,17.5250761 25.0962873,17.5759586 C21.4578211,17.6716372 18.431406,14.799574 18.3357273,11.1613512 C18.2400487,7.52312842 20.9285453,4.51253804 24.5667681,4.41710286 Z M49.9552039,4.39884358 C53.5946439,4.39884358 56.544857,7.34930006 56.544857,10.9884967 C56.544857,14.6281802 53.5946439,17.5783932 49.9552039,17.5783932 C46.3157638,17.5783932 43.3655508,14.6281802 43.3655508,10.9884967 C43.3655508,7.34930006 46.3157638,4.39884358 49.9552039,4.39884358 Z M49.9552039,6.18265368 C47.3010347,6.18265368 45.1491175,8.33457091 45.1491175,10.9884967 C45.1491175,13.6429093 47.3010347,15.7948265 49.9552039,15.7948265 C52.6093731,15.7948265 54.7612903,13.6429093 54.7612903,10.9884967 C54.7612903,8.33457091 52.6093731,6.18265368 49.9552039,6.18265368 Z M130.458673,4.71144248 L124.729397,18.3513694 L124.726476,18.3508825 L124.313086,19.3332319 C123.644553,20.9227632 122.02045,21.8342666 120.384906,21.6835666 L120.384906,19.9245892 C121.332928,20.0850274 122.318685,19.5757152 122.705295,18.6569081 L123.017894,17.9133901 L123.023737,17.9146074 L123.423981,16.9015825 L118.61059,4.71144248 L120.438223,4.71144248 L124.461108,14.7172855 L128.712112,4.71144248 L130.458673,4.71144248 Z M91.1323189,10.9772976 C91.1323189,12.8158856 90.4779063,14.3934875 89.1688375,15.70986 C87.8597687,17.0262325 86.3006695,17.6553256 84.4912964,17.596409 C82.6378576,17.522885 81.0860621,16.7800974 79.8359099,15.3680463 L79.8359099,21.7001217 L78.2032867,21.7001217 L78.2032867,11.0875837 C78.2032867,11.0875837 78.2032867,11.0763847 78.2032867,11.0544735 C78.2032867,11.0323189 78.2032867,11.0140596 78.2032867,10.9994522 C78.2032867,9.19007912 78.8615946,7.62732806 80.1779671,6.31095557 C81.4943396,4.99458308 83.0570907,4.36573341 84.8662203,4.42440657 C86.6164334,4.46847231 88.0988436,5.13043214 89.3119903,6.41028606 C90.5253804,7.69013999 91.1323189,9.21223372 91.1323189,10.9772976 Z M89.4556299,11.1097383 C89.4699939,9.78216677 89.0251978,8.61649422 88.1241631,7.62002435 C87.2236153,6.62331102 86.1239197,6.10133901 84.8221546,6.05727328 C83.4356665,5.98374924 82.2480828,6.46530736 81.2662203,7.49878271 C80.2843579,8.53201461 79.8064516,9.74175289 79.8359099,11.1318929 C79.8651248,12.4631163 80.3396226,13.599087 81.2552648,14.5441875 C82.1711503,15.4892879 83.2779063,15.9637858 84.5791844,15.9637858 C85.9108947,15.9637858 87.0468655,15.4892879 87.9919659,14.5441875 C88.9373098,13.599087 89.4259282,12.4555691 89.4556299,11.1097383 Z M103.509191,10.856056 C103.479732,9.52848448 103.00913,8.39202678 102.093731,7.45082167 C101.181741,6.5059647 100.082288,6.03536214 98.7987827,6.03536214 C97.4566038,6.03536214 96.3130858,6.5059647 95.3713938,7.45082167 C94.4267803,8.39202678 93.9483871,9.53603165 93.9337797,10.8779671 C93.9043214,12.2052952 94.3420572,13.3639075 95.2499087,14.3603774 C96.1545953,15.3568472 97.2503956,15.8827145 98.5339014,15.9418746 C99.9201461,16.0005478 101.104078,15.5185027 102.082532,14.492818 C103.064151,13.4705417 103.538892,12.2569081 103.509191,10.856056 L103.509191,10.856056 Z" id="Fill-3"></path>
            <g id="Group-23" transform="translate(139.655813, 0.000000)">
                <path d="M40.4298844,2.28122337 L40.4298844,3.90675593 L29.6342666,3.90675593 C29.3302495,3.90675593 29.0782715,4.17379793 29.0782715,4.49698722 L29.0782715,5.41342057 L25.5566038,5.41342057 C25.2977785,5.41342057 25.086336,5.20225198 25.086336,4.94342666 L25.086336,2.28122337 C25.086336,1.24537432 25.9310103,0.40042605 26.9671333,0.40042605 L38.5493609,0.40042605 C39.58521,0.40042605 40.4298844,1.24537432 40.4298844,2.28122337 Z M29.8333841,6.98472307 L29.8265368,6.98472307 C29.7438223,6.98472307 29.6767194,6.91296409 29.6767194,6.82531954 L29.6767194,4.82017651 C29.6767194,4.7415703 29.7383445,4.67583688 29.8131163,4.67583688 L39.6260195,4.67583688 C39.693944,4.67583688 39.7495435,4.73444918 39.7495435,4.80620816 L39.7495435,4.8330493 C39.7495435,4.90453439 39.6936701,4.96314668 39.6260195,4.96314668 L29.9832015,4.96314668 L29.9832015,6.82531954 C29.9832015,6.91323798 29.9160986,6.98472307 29.8333841,6.98472307 Z M29.8333841,13.4246805 L29.8265368,13.4246805 C29.7438223,13.4246805 29.6767194,13.3526476 29.6767194,13.2655508 L29.6767194,11.2606817 C29.6767194,11.1815277 29.7383445,11.1160682 29.8131163,11.1160682 L39.6260195,11.1160682 C39.693944,11.1160682 39.7495435,11.1746805 39.7495435,11.2458917 L39.7495435,11.2732806 C39.7495435,11.3444918 39.6936701,11.403378 39.6260195,11.403378 L29.9832015,11.403378 L29.9832015,13.2655508 C29.9832015,13.3531954 29.9160986,13.4246805 29.8333841,13.4246805 Z M40.4298844,7.70751674 L40.4298844,10.3699939 L29.6342666,10.3699939 C29.3302495,10.3699939 29.0782715,10.6364881 29.0782715,10.9602252 L29.0782715,11.5101948 L25.5566038,11.5101948 C25.2977785,11.5101948 25.086336,11.2987523 25.086336,11.039927 L25.086336,6.77601948 C25.086336,6.51719416 25.2977785,6.30575167 25.5566038,6.30575167 L29.0782715,6.30575167 L29.0782715,7.11755934 C29.0782715,7.44074863 29.3286062,7.70751674 29.6342666,7.70751674 L40.4298844,7.70751674 Z M40.4298844,14.1704808 L40.4298844,15.5358186 C40.4298844,16.5719416 39.58521,17.4166159 38.5493609,17.4166159 L26.9671333,17.4166159 C25.9310103,17.4166159 25.086336,16.5719416 25.086336,15.5358186 L25.086336,12.8733414 C25.086336,12.6142422 25.2977785,12.4030736 25.5566038,12.4030736 L29.0782715,12.4030736 L29.0782715,13.5805234 C29.0782715,13.9039866 29.3286062,14.1704808 29.6342666,14.1704808 L40.4298844,14.1704808 L40.4298844,14.1704808 Z" id="Fill-5"></path>
                <path d="M-3.19744231e-14,1.76302495 C1.31521607,2.30423007 2.25054778,3.60328667 2.25054778,5.10584297 L2.25054778,17.4166159 L4.21159464,17.4166159 L4.21159464,5.57227632 C4.21159464,3.58959221 5.8398661,1.96049909 7.8228241,1.96049909 C9.806056,1.96049909 11.4348752,3.58904443 11.4348752,5.57227632 L11.4348752,17.4166159 L13.3953743,17.4166159 L13.3953743,5.57227632 C13.3953743,3.58904443 15.0239197,1.96049909 17.0071516,1.96049909 C18.9898357,1.96049909 20.618381,3.58959221 20.618381,5.57227632 L20.618381,17.4166159 L22.5794279,17.4166159 L22.5794279,5.57227632 C22.5794279,2.50745587 20.0716981,4.24549285e-13 17.0071516,4.24549285e-13 L17.0068777,4.24549285e-13 C15.1074559,4.24549285e-13 13.4222155,0.962994522 12.4148509,2.42556299 C11.4077602,0.962994522 9.72279367,4.24549285e-13 7.82309799,4.24549285e-13 L7.8228241,4.24549285e-13 C6.02090688,4.24549285e-13 4.41153378,0.866859404 3.3915703,2.20453439 C2.83776628,1.30316494 2.03527085,0.569689592 1.08158856,0.100791236 L-3.19744231e-14,1.76302495" id="Fill-6"></path>
            </g>
        </g>
    </g>
</svg>